<?xml version="1.0" standalone="no"?>
<!DOCTYPE svg PUBLIC "-//W3C//DTD SVG 20010904//EN"
 "http://www.w3.org/TR/2001/REC-SVG-20010904/DTD/svg10.dtd">
<svg version="1.0" xmlns="http://www.w3.org/2000/svg"
 width="1200.000000pt" height="1200.000000pt" viewBox="0 0 1200.000000 1200.000000"
 preserveAspectRatio="xMidYMid meet">
<metadata>
Created by potrace 1.11, written by Peter Selinger 2001-2013
</metadata>
<g transform="translate(0.000000,1200.000000) scale(0.100000,-0.100000)"
fill="#000000" stroke="none">
<path d="M814 11878 c4 -68 9 -141 11 -163 2 -22 7 -98 11 -170 3 -71 8 -148
9 -170 1 -22 6 -94 9 -160 4 -66 9 -140 11 -165 2 -25 7 -97 10 -160 4 -63 8
-136 10 -163 2 -26 6 -102 10 -168 3 -67 8 -144 10 -173 2 -28 7 -96 10 -151
9 -171 14 -257 20 -342 10 -156 16 -267 30 -503 6 -105 11 -185 20 -305 3 -44
8 -123 10 -175 3 -52 7 -131 10 -175 3 -44 7 -118 10 -165 3 -47 8 -116 10
-155 3 -38 7 -115 10 -170 3 -55 7 -125 9 -155 3 -30 7 -109 11 -176 l7 -121
-166 1 c-92 1 -172 -1 -179 -4 -10 -4 -13 -360 -13 -1790 0 -982 3 -1787 7
-1790 4 -3 134 -5 288 -5 246 1 281 -1 282 -15 1 -8 2 -40 4 -70 6 -120 16
-287 20 -320 2 -19 7 -93 11 -165 6 -139 9 -189 19 -330 3 -49 8 -130 10 -180
5 -86 8 -128 20 -325 3 -47 8 -119 10 -160 3 -41 7 -115 10 -165 3 -49 8 -126
10 -170 3 -44 7 -114 10 -155 3 -41 7 -118 10 -170 3 -52 7 -129 10 -170 15
-241 21 -328 30 -504 4 -71 9 -136 10 -145 2 -9 4 -30 4 -47 1 -29 4 -32 44
-38 23 -4 56 -11 72 -16 25 -8 464 -114 518 -125 10 -2 75 -18 145 -35 70 -17
134 -33 142 -35 84 -19 128 -30 275 -65 94 -22 208 -50 255 -61 47 -12 92 -22
100 -24 8 -2 83 -20 165 -40 309 -75 360 -87 376 -90 9 -2 130 -31 270 -65
140 -33 331 -79 424 -102 384 -91 493 -117 890 -213 83 -20 158 -38 168 -40
10 -2 26 -6 35 -9 9 -3 28 -8 42 -10 14 -3 45 -10 70 -17 25 -6 52 -12 60 -14
8 -2 47 -11 85 -20 39 -9 77 -18 85 -20 8 -2 35 -8 60 -15 25 -7 52 -14 60
-15 8 -2 59 -14 113 -27 l99 -23 326 84 c180 45 334 84 342 86 14 3 214 53
1685 425 330 84 607 153 615 155 8 2 195 49 415 105 220 56 409 104 420 106
11 2 130 32 265 67 l244 63 7 34 c4 19 10 85 14 147 3 61 7 119 9 130 2 10 7
63 11 118 3 55 8 116 10 135 2 19 6 76 10 125 3 50 8 113 10 140 3 28 7 86 10
130 3 44 8 98 10 120 2 22 7 81 10 130 4 50 8 106 10 125 2 19 6 78 10 130 3
52 8 111 10 130 2 19 6 76 10 125 4 50 8 106 10 125 2 19 6 78 10 130 4 52 8
111 10 130 2 19 6 76 10 125 4 50 8 106 10 125 2 19 6 78 10 130 3 52 8 113
10 135 3 22 8 76 11 120 7 103 10 150 19 255 4 47 8 94 9 105 1 20 9 20 351
21 193 1 352 2 355 3 3 1 5 806 5 1790 0 1784 0 1790 -20 1793 -11 2 -107 3
-213 3 l-194 -1 7 110 c3 61 8 127 9 146 2 19 7 76 10 125 4 50 9 108 11 130
4 39 13 146 20 255 3 30 7 82 10 115 2 33 7 96 10 140 3 44 7 103 10 130 3 28
7 84 10 125 6 79 12 158 20 250 4 53 11 140 20 258 4 54 6 83 21 272 3 41 7
93 10 115 2 22 6 83 9 135 3 52 8 106 10 120 2 14 7 70 10 125 3 55 8 114 10
130 2 17 6 75 10 130 3 55 8 114 10 130 2 17 7 71 10 120 3 50 8 110 11 135 2
25 6 81 9 125 3 44 8 100 10 125 2 25 7 83 10 130 3 47 8 105 10 130 2 25 7
81 10 125 3 44 8 100 10 125 2 25 7 91 11 148 l6 103 -78 -2 c-43 -1 -95 -6
-114 -10 -19 -4 -53 -10 -75 -13 -22 -2 -74 -10 -115 -16 -41 -6 -88 -13 -105
-15 -16 -3 -41 -7 -55 -9 -14 -2 -47 -7 -73 -11 -27 -4 -58 -8 -70 -11 -11 -2
-55 -8 -96 -14 -42 -6 -87 -12 -101 -15 -14 -2 -86 -14 -160 -25 -74 -11 -178
-26 -230 -34 -52 -8 -115 -17 -140 -21 -25 -3 -99 -15 -165 -26 -66 -10 -140
-21 -165 -24 -25 -3 -56 -8 -70 -10 -14 -2 -43 -6 -65 -10 -23 -3 -52 -7 -65
-10 -13 -3 -42 -7 -65 -11 -22 -3 -139 -21 -260 -39 -121 -19 -240 -36 -265
-39 -25 -3 -54 -8 -65 -10 -11 -2 -42 -7 -70 -10 -27 -4 -75 -11 -105 -16 -30
-5 -73 -12 -95 -15 -22 -4 -51 -8 -65 -10 -14 -2 -47 -7 -75 -10 -27 -4 -57
-8 -65 -10 -8 -3 -64 -11 -125 -20 -60 -9 -121 -18 -135 -20 -14 -2 -47 -7
-75 -11 -27 -3 -59 -8 -70 -10 -11 -2 -40 -7 -65 -10 -25 -3 -52 -7 -60 -9 -8
-2 -37 -7 -65 -11 -27 -3 -57 -7 -65 -9 -8 -2 -51 -8 -95 -14 -44 -7 -102 -16
-130 -21 -27 -5 -70 -11 -95 -15 -25 -3 -54 -7 -65 -9 -11 -2 -42 -7 -70 -11
-27 -3 -108 -15 -180 -26 -71 -11 -148 -22 -170 -25 -22 -3 -78 -12 -125 -19
-47 -8 -103 -17 -125 -20 -23 -3 -50 -7 -61 -9 -12 -2 -45 -7 -75 -11 -30 -4
-56 -8 -59 -10 -26 -16 -215 -24 -290 -13 -25 4 -121 19 -215 33 -93 14 -183
28 -200 30 -69 9 -111 15 -135 20 -14 2 -45 7 -70 10 -53 7 -95 14 -130 20
-14 2 -45 7 -70 10 -25 3 -52 8 -60 10 -8 2 -37 6 -65 10 -67 8 -109 14 -175
25 -30 5 -75 12 -100 15 -25 3 -70 10 -100 15 -30 5 -73 12 -95 15 -22 3 -53
7 -70 10 -16 3 -48 7 -70 10 -22 4 -81 13 -131 20 -51 8 -114 17 -140 20 -27
3 -56 8 -64 10 -8 2 -35 7 -60 10 -25 3 -131 19 -235 35 -105 16 -213 32 -240
35 -28 3 -57 8 -65 10 -8 2 -35 7 -60 10 -25 3 -85 12 -135 20 -49 8 -110 17
-135 20 -25 3 -85 12 -135 20 -49 8 -106 16 -125 19 -19 3 -97 14 -172 26
-145 22 -178 27 -243 35 -22 3 -51 7 -65 10 -14 2 -45 7 -70 10 -25 3 -52 8
-60 10 -8 2 -34 7 -56 10 -23 3 -59 8 -80 11 -22 3 -48 7 -59 8 -11 2 -40 6
-65 10 -25 4 -56 9 -70 11 -14 2 -44 6 -68 10 -57 9 -78 12 -142 20 -30 4 -58
9 -61 11 -3 2 -32 6 -64 10 -32 3 -66 7 -74 9 -9 1 -36 6 -61 10 -25 4 -52 9
-60 10 -8 1 -40 6 -70 10 -30 4 -64 9 -75 11 -10 2 -35 6 -55 8 -102 14 -128
18 -166 25 -22 4 -76 9 -119 10 l-77 2 6 -123z"/>
</g>
</svg>
